<svg width="18" height="18" viewBox="0 0 18 18" fill="none" xmlns="http://www.w3.org/2000/svg">
<path d="M9.02948 8.35129L6.15918 6.86014L9.10023 1.06641L13.6462 1.43223L14.6933 3.49532L12.3364 7.24639L9.0315 8.35129H9.02948Z" fill="#233FAD"/>
<path d="M12.3605 8.4292L12.973 6.88235L15.0084 6.71893L15.5926 8.72446L13.9028 9.62137L12.3585 8.43106L12.3605 8.4292ZM11.2407 5.22593L9.80957 8.83587L13.9129 11.9983L18 9.83121L16.5325 4.79883L11.2407 5.22407V5.22593Z" fill="#F8645C"/>
<path d="M10.9375 9.04297L16.7731 12.1385L16.5447 12.9222L11.36 16.9184L10.0118 16.8088L8.33203 11.0503L10.9375 9.04297Z" fill="#541087"/>
<path d="M2.94922 14.8311L7.87522 17.9991L8.62311 17.6797L9.70655 12.222L8.99302 9.77269L6.93327 9.60742L2.95124 14.8311H2.94922Z" fill="#5EB591"/>
<path d="M0.855025 7.70544L0 9.86695L2.58125 13.2522L5.17462 13.4602L7.95194 9.0406L7.11308 6.16602L0.857047 7.70544H0.855025Z" fill="#F4B840"/>
<path d="M9.09827 1.06836L6.15723 6.8621L9.02753 8.35324L10.0523 8.0097" fill="#233FAD"/>
<path d="M7.93547 3.96354L0.616211 5.7648L0.959838 5.21885L7.8526 3.52344L7.93547 3.96354Z" fill="#2BBBC6"/>
<path d="M8.61345 7.48688L6.97212 7.88984L6.17773 7.6243L8.52855 7.04492L8.61345 7.48502V7.48688Z" fill="#2BBBC6"/>
<path d="M8.38628 6.31305L4.85298 7.18211L4.05859 6.91657L8.3034 5.87109L8.3883 6.31119L8.38628 6.31305Z" fill="#2BBBC6"/>
<path d="M8.1621 5.13727L2.73481 6.47243L1.94043 6.20688L8.07721 4.69531L8.1621 5.13541V5.13727Z" fill="#2BBBC6"/>
<path d="M7.71208 2.78766L4.72656 3.52302L4.81954 3.03835L7.62718 2.3457L7.71208 2.7858V2.78766Z" fill="#2BBBC6"/>
<path d="M7.48525 1.61579L4.9707 2.23416L5.06368 1.74949L7.40035 1.17383L7.48525 1.61579Z" fill="#2BBBC6"/>
<path d="M7.17645 0L5.31076 0.458671L5.21777 0.943339L7.25932 0.440101L7.17645 0Z" fill="#2BBBC6"/>
</svg>
